<?xml version="1.0" encoding="UTF-8" standalone="no"?>
<svg
   xmlns:dc="http://purl.org/dc/elements/1.1/"
   xmlns:cc="http://creativecommons.org/ns#"
   xmlns:rdf="http://www.w3.org/1999/02/22-rdf-syntax-ns#"
   xmlns:svg="http://www.w3.org/2000/svg"
   xmlns="http://www.w3.org/2000/svg"
   xmlns:sodipodi="http://sodipodi.sourceforge.net/DTD/sodipodi-0.dtd"
   xmlns:inkscape="http://www.inkscape.org/namespaces/inkscape"
   width="792pt"
   height="612pt"
   version="1.1"
   viewBox="0 0 792 612"
   id="svg45"
   sodipodi:docname="LibreRouter.svg"
   inkscape:version="0.92.3 (2405546, 2018-03-11)">
  <metadata
     id="metadata49">
    <rdf:RDF>
      <cc:Work
         rdf:about="">
        <dc:format>image/svg+xml</dc:format>
        <dc:type
           rdf:resource="http://purl.org/dc/dcmitype/StillImage" />
        <dc:title></dc:title>
      </cc:Work>
    </rdf:RDF>
  </metadata>
  <sodipodi:namedview
     pagecolor="#ffffff"
     bordercolor="#666666"
     borderopacity="1"
     objecttolerance="10"
     gridtolerance="10"
     guidetolerance="10"
     inkscape:pageopacity="0"
     inkscape:pageshadow="2"
     inkscape:window-width="640"
     inkscape:window-height="480"
     id="namedview47"
     showgrid="false"
     inkscape:zoom="0.22348485"
     inkscape:cx="329.69492"
     inkscape:cy="528"
     inkscape:window-x="0"
     inkscape:window-y="0"
     inkscape:window-maximized="0"
     inkscape:current-layer="Fondo" />
  <defs
     id="defs5">
    <clipPath
       id="Clip0">
      <path
         d="M 0,0 H 600.275 V 276.573 H 0 Z"
         id="path2"
         inkscape:connector-curvature="0" />
    </clipPath>
  </defs>
  <g
     id="Fondo"
     inkscape:label="Fondo"
     inkscape:groupmode="layer"
     transform="translate(0,-180)">
    <g
       style="clip-rule:evenodd;fill:none;stroke:none"
       id="Grupo1"
       clip-path="url(#Clip0)"
       transform="translate(113.83051,302.50647)">
      <path
         style="fill:#f39100;fill-rule:nonzero;stroke:#f39100;stroke-width:5;stroke-linecap:butt;stroke-linejoin:miter;stroke-dasharray:none"
         d="M 65.174,32.108 C 64.863,28.272 63.888,24.772 62.248,21.61 59.424,15.99 55.323,11.641 49.934,8.575 45.32,5.927 40.343,4.596 35.007,4.596 27.26,4.596 20.504,7.238 14.732,12.521 8.96,17.814 5.741,24.344 5.073,32.108 Z M 51.047,69.733 c 0,0 -6.115,0 -16.118,0 C 24.774,69.733 16.334,66.108 9.615,58.855 3.202,52.008 0,44.01 0,34.872 0,28.124 1.839,21.862 5.536,16.089 8.611,11.289 12.594,7.48 17.464,4.67 22.901,1.557 28.772,0 35.087,0 c 9.075,0 16.953,3.036 23.622,9.115 4.971,4.551 8.252,8.332 10.463,17.629 0.612,2.566 0.743,9.547 0.743,9.547 H 4.884 c 0.311,5.163 1.829,10.279 4.5,14.515 2.818,4.395 6.437,7.843 10.846,10.346 4.624,2.656 9.57,3.987 14.857,3.987 5.279,0 15.96,0 15.96,0 z"
         transform="translate(178.36,203.418)"
         id="path7"
         inkscape:connector-curvature="0" />
      <path
         style="fill:#f39100;fill-rule:nonzero;stroke:#f39100;stroke-width:5;stroke-linecap:butt;stroke-linejoin:miter;stroke-dasharray:none"
         d="M 0,66.983 H 4.852 V 0 H 0 Z"
         transform="translate(43.4193,204.95)"
         id="path9"
         inkscape:connector-curvature="0" />
      <path
         style="fill:#f39100;fill-rule:nonzero;stroke:#f39100;stroke-width:5;stroke-linecap:butt;stroke-linejoin:miter;stroke-dasharray:none"
         d="m 34.93,28.05 c -8.67,0 -16.055,3.273 -22.159,9.802 -5.235,5.572 -7.85,12.219 -7.85,19.928 0,9.206 3.184,16.736 9.543,22.608 5.893,5.47 12.615,8.204 20.16,8.204 8.668,0 16.027,-3.194 22.082,-9.581 5.489,-5.771 8.232,-12.688 8.232,-20.764 0,-9.048 -3.435,-16.608 -10.307,-22.691 C 49.089,30.704 42.525,28.203 34.93,28.05 Z M 4.843,40.62 c 7.085,-11.452 17.16,-17.166 30.242,-17.166 10.41,0 19.034,3.8 25.855,11.416 5.899,6.644 8.85,14.46 8.85,23.456 0,10.723 -4.004,19.532 -12.006,26.434 -6.464,5.62 -14.08,8.427 -22.854,8.427 -8.67,0 -16.287,-2.784 -22.852,-8.355 C 6.076,79.779 2.333,73.42 0.845,65.756 0.274,62.742 0,58.273 0,52.341 V 0 h 4.843 z"
         transform="translate(65.4283,179.964)"
         id="path11"
         inkscape:connector-curvature="0" />
      <path
         style="fill:#f39100;fill-rule:nonzero;stroke:#f39100;stroke-width:5;stroke-linecap:butt;stroke-linejoin:miter;stroke-dasharray:none"
         d="M 23.8821,7.54664e-4 V 4.59475 c -6.97,0.21 -11.892,2.033 -14.73499,5.48605 -2.848,3.451 -4.267,9.309 -4.267,17.59 v 39.471 H 0.0281076 v -39.93 C -0.536892,8.96775 7.41611,-0.0952453 23.8821,7.54664e-4"
         transform="translate(150.445,204.791)"
         id="path13"
         inkscape:connector-curvature="0" />
      <path
         style="fill:#f39100;fill-rule:nonzero;stroke:#f39100;stroke-width:5;stroke-linecap:butt;stroke-linejoin:miter;stroke-dasharray:none"
         d="M 23.8823,92.808 V 88.204 C 16.9033,87.998 11.9963,86.181 9.1483,82.725 6.3023,79.276 4.8773,73.42 4.8773,65.148 L 4.8473,0 H 0.00129706 L 0.0282971,65.601 C -0.538703,83.835 7.4153,92.905 23.8823,92.808"
         transform="translate(2.5,179.964)"
         id="path15"
         inkscape:connector-curvature="0" />
      <path
         style="fill:#858788;fill-rule:nonzero;stroke:#858788;stroke-width:5;stroke-linecap:butt;stroke-linejoin:miter;stroke-dasharray:none"
         d="M 65.174,32.11 C 64.864,28.274 63.887,24.774 62.248,21.611 59.424,15.99 55.323,11.643 49.934,8.574 45.321,5.928 40.344,4.598 35.006,4.598 27.258,4.598 20.504,7.24 14.732,12.522 8.961,17.815 5.741,24.345 5.074,32.11 Z M 51.047,69.734 c 0,0 -6.115,0 -16.117,0 C 24.774,69.734 16.334,66.11 9.615,58.856 3.204,52.009 0,44.011 0,34.872 0,28.124 1.839,21.862 5.536,16.09 8.612,11.288 12.594,7.481 17.464,4.672 22.901,1.558 28.772,0 35.088,0 c 9.073,0 16.951,3.036 23.621,9.117 4.971,4.549 8.252,8.331 10.463,17.627 0.612,2.567 0.742,9.547 0.742,9.547 H 4.884 c 0.311,5.163 1.829,10.28 4.5,14.515 2.819,4.395 6.437,7.844 10.846,10.347 4.624,2.656 9.571,3.987 14.858,3.987 5.278,0 15.959,0 15.959,0 z"
         transform="translate(489.8,204.339)"
         id="path17"
         inkscape:connector-curvature="0" />
      <path
         style="fill:#858788;fill-rule:nonzero;stroke:#858788;stroke-width:5;stroke-linecap:butt;stroke-linejoin:miter;stroke-dasharray:none"
         d="M 23.8801,7.54664e-4 V 4.59475 c -6.978,0.21 -11.89,2.033 -14.73299,5.48605 -2.851,3.451 -4.275,9.309 -4.275,17.59 v 39.471 H 0.0281108 v -39.93 C -0.536889,8.96775 7.41511,-0.0952453 23.8801,7.54664e-4"
         transform="translate(280.043,204.791)"
         id="path19"
         inkscape:connector-curvature="0" />
      <path
         style="fill:#858788;fill-rule:nonzero;stroke:#858788;stroke-width:5;stroke-linecap:butt;stroke-linejoin:miter;stroke-dasharray:none"
         d="m 34.858,4.596 c -8.774,0 -16.191,3.397 -22.238,10.191 -5.083,5.723 -7.619,12.418 -7.619,20.085 0,8.931 3.309,16.421 9.923,22.448 5.695,5.215 12.184,7.818 19.471,7.818 9.127,0 16.694,-3.4 22.696,-10.188 5.079,-5.728 7.617,-12.343 7.617,-19.852 0,-8.996 -3.305,-16.56 -9.924,-22.685 C 49.297,7.349 42.653,4.749 34.858,4.596 Z m 0,-4.596 c 10.208,0 18.798,3.755 25.775,11.259 6.051,6.547 9.076,14.516 9.076,23.92 0,10.465 -3.945,19.126 -11.849,25.973 -6.612,5.721 -14.462,8.581 -23.542,8.581 -5.539,0 -10.878,-1.374 -16.002,-4.134 C 12.358,62.428 7.77,57.959 4.539,52.189 1.51,46.87 0,41.103 0,34.872 0,24.237 3.974,15.474 11.922,8.575 18.286,3.003 25.932,0.145 34.858,0 Z"
         transform="translate(308.427,203.418)"
         id="path21"
         inkscape:connector-curvature="0" />
      <path
         style="fill:#858788;fill-rule:nonzero;stroke:#858788;stroke-width:5;stroke-linecap:butt;stroke-linejoin:miter;stroke-dasharray:none"
         d="m 0,0 h 4.843 v 37.319 c 0,4.45 0.191,7.769 0.58,9.965 0.389,2.199 1.161,4.395 2.347,6.589 1.69,3.115 4.048,5.569 7.079,7.359 3.027,1.785 6.36,2.686 10.001,2.686 3.491,0 6.696,-0.846 9.62,-2.533 2.93,-1.691 5.26,-4.015 7.006,-6.974 1.276,-2.246 2.166,-4.596 2.65,-7.053 0.489,-2.446 0.733,-5.823 0.733,-10.111 V 0 h 4.845 v 38.158 c 0,8.132 -1.257,14.304 -3.768,18.55 -2.053,3.523 -4.979,6.364 -8.77,8.507 -3.954,2.199 -8.11,3.296 -12.465,3.296 -5.748,0 -10.879,-1.79 -15.389,-5.37 C 5.822,60.335 3.401,57.023 2.036,53.22 0.674,49.421 0,43.962 0,36.864 V 0"
         transform="translate(392.555,204.95)"
         id="path23"
         inkscape:connector-curvature="0" />
      <path
         style="fill:#858788;fill-rule:nonzero;stroke:#858788;stroke-width:5;stroke-linecap:butt;stroke-linejoin:miter;stroke-dasharray:none"
         d="M 0.0282032,23.533 V 0 H 4.8782 v 23.533 h 18.927 v 4.594 H 4.8782 v 34.797 c 0,8.222 1.42,14.059 4.269,17.509 2.846,3.45 7.737,5.272 14.658,5.479 v 4.604 C 7.3872,90.61 -0.536797,81.54 0.0282032,63.306 V 23.533"
         transform="translate(459.37,181.417)"
         id="path25"
         inkscape:connector-curvature="0" />
      <path
         style="fill:#858788;fill-rule:nonzero;stroke:#858788;stroke-width:5;stroke-linecap:butt;stroke-linejoin:miter;stroke-dasharray:none"
         d="M 23.8851,7.54664e-4 V 4.59475 c -6.978,0.21 -11.893,2.033 -14.73798,5.48605 -2.846,3.451 -4.272,9.309 -4.272,17.59 v 39.471 H 0.0281202 v -39.93 C -0.53688,8.96775 7.41212,-0.0952453 23.8851,7.54664e-4"
         transform="translate(573.89,204.791)"
         id="path27"
         inkscape:connector-curvature="0" />
      <path
         style="fill:#f39100;fill-rule:nonzero;stroke:none"
         d="m 65.5511,15.3478 c 0,0 16.601,-23.07896 41.1399,-12.63496 0,0 20.41,6.679 23.81,29.94196 0,0 4.619,22.293 -13.361,41.976 0,0 -28.1109,29.8772 -51.5889,44.9442 0,0 -33.689,-23.0842 -51.668,-44.9442 0,0 -16.63702,-17.257 -13.486017,-41.976 0,0 2.434997,-17.186 15.184017,-25.20396 0,0 25.835,-19.92504 49.97,7.89696"
         transform="translate(227.623,23.1072)"
         id="path29"
         inkscape:connector-curvature="0" />
      <path
         style="fill:#858788;fill-rule:nonzero;stroke:none"
         d="m 20.285,0 c 0,0 -0.128,0.336 -0.367,0.965 -0.249,0.614 -0.559,1.546 -0.974,2.688 -0.822,2.291 -1.91,5.535 -3.027,9.349 -0.534,1.919 -1.124,3.963 -1.616,6.14 -0.269,1.081 -0.496,2.198 -0.752,3.325 -0.175,1.151 -0.491,2.281 -0.65,3.467 -0.441,2.342 -0.7,4.774 -0.998,7.221 -0.198,2.46 -0.388,4.949 -0.395,7.443 l -0.032,1.869 0.049,1.866 c 0.004,1.244 0.094,2.481 0.159,3.714 0.02,0.617 0.078,1.229 0.157,1.837 0.052,0.612 0.104,1.221 0.155,1.827 0.094,1.215 0.337,2.395 0.443,3.588 0.359,2.354 0.718,4.66 1.188,6.843 0.106,0.548 0.193,1.097 0.31,1.63 0.127,0.53 0.266,1.048 0.374,1.571 0.241,1.036 0.426,2.062 0.694,3.021 0.517,1.925 0.904,3.761 1.388,5.347 0.448,1.602 0.777,3.057 1.139,4.218 0.347,1.17 0.561,2.138 0.737,2.784 0.163,0.653 0.234,1.017 0.234,1.017 0,0 -0.287,-0.221 -0.793,-0.663 -0.494,-0.449 -1.262,-1.086 -2.165,-1.96 C 14.596,78.26 13.614,77.115 12.463,75.789 11.281,74.48 10.165,72.859 8.915,71.077 8.277,70.192 7.764,69.191 7.147,68.188 6.54,67.178 5.972,66.104 5.441,64.968 4.327,62.718 3.346,60.239 2.502,57.606 1.689,54.966 0.992,52.168 0.593,49.27 0.414,47.818 0.162,46.357 0.119,44.872 L 0,42.645 0.009,40.409 C 0.025,37.426 0.384,34.456 0.875,31.573 1.167,30.14 1.421,28.711 1.834,27.34 2.024,26.651 2.212,25.967 2.398,25.288 2.61,24.616 2.853,23.959 3.076,23.305 3.513,21.993 4.042,20.739 4.557,19.519 5.141,18.323 5.624,17.127 6.257,16.033 7.416,13.803 8.727,11.816 9.98,10.041 12.551,6.515 15.121,3.951 17.064,2.332 18.019,1.509 18.857,0.948 19.403,0.556 19.962,0.172 20.285,0 20.285,0"
         transform="translate(194.29,26.312)"
         id="path31"
         inkscape:connector-curvature="0" />
      <path
         style="fill:#858788;fill-rule:nonzero;stroke:none"
         d="m 25.1053,0 c 0,0 -0.2,0.423 -0.574,1.216 -0.381,0.783 -0.882,1.961 -1.524,3.429 -0.641,1.469 -1.378,3.261 -2.185,5.304 -0.806,2.045 -1.652,4.359 -2.52,6.874 -0.83,2.532 -1.735,5.244 -2.5,8.152 -0.419,1.441 -0.765,2.942 -1.16,4.454 -0.289,1.544 -0.744,3.07 -1.003,4.669 -0.673,3.163 -1.089,6.462 -1.529,9.791 -0.298,3.347 -0.625,6.739 -0.604,10.143 l -0.049,2.55 0.081,2.545 c 0.024,1.696 0.165,3.38 0.271,5.058 l 0.086,1.255 0.156,1.244 c 0.085,0.831 0.17,1.658 0.255,2.48 0.064,0.827 0.215,1.635 0.344,2.443 0.139,0.806 0.24,1.615 0.357,2.416 0.558,3.182 1.14,6.28 1.873,9.197 0.169,0.735 0.313,1.467 0.497,2.177 0.198,0.706 0.406,1.398 0.584,2.09 0.383,1.374 0.683,2.737 1.102,4.002 0.81,2.539 1.446,4.948 2.206,7.015 0.713,2.087 1.26,3.973 1.84,5.468 0.553,1.508 0.93,2.743 1.217,3.571 0.264,0.844 0.404,1.295 0.404,1.295 0,0 -0.346,-0.318 -0.963,-0.941 -0.605,-0.631 -1.536,-1.533 -2.646,-2.746 -1.164,-1.182 -2.364,-2.758 -3.78,-4.569 -1.458,-1.789 -2.823,-3.984 -4.366,-6.379 -0.404,-0.591 -0.744,-1.23 -1.09503,-1.881 -0.354,-0.651 -0.715,-1.315 -1.082,-1.99 -0.373,-0.674 -0.725,-1.373 -1.095,-2.079 -0.35,-0.715 -0.666,-1.459 -1.008,-2.206 -1.375,-2.985 -2.58,-6.256 -3.623,-9.716 -1.003,-3.471 -1.856,-7.135 -2.351001,-10.923 -0.218,-1.896 -0.534,-3.804 -0.571,-5.742 L 0.00626945,56.759 c -0.013,-0.97 -0.003,-1.943 0.00499995,-2.916 0.052,-3.889 0.4549996,-7.767 1.0730006,-11.536 0.372,-1.873 0.678,-3.743 1.192,-5.541 0.235,-0.902 0.469,-1.8 0.701,-2.69 0.265,-0.881 0.563,-1.745 0.84,-2.606 0.535,-1.726 1.204,-3.375 1.834,-4.989 0.349,-0.793 0.694,-1.577 1.036,-2.352 0.329,-0.778 0.683,-1.534 1.071,-2.263 1.432,-2.962 3.05803,-5.615 4.60803,-8.004 3.183,-4.744 6.359,-8.271 8.761,-10.538 1.182,-1.149 2.211,-1.957 2.889,-2.516 C 24.7063,0.256 25.1053,0 25.1053,0"
         transform="translate(156.474,16.871)"
         id="path33"
         inkscape:connector-curvature="0" />
      <path
         style="fill:#858788;fill-rule:nonzero;stroke:none"
         d="m 32.2671,0 c 0,0 -0.306,0.553 -0.881,1.591 -0.58,1.028 -1.353,2.581 -2.349,4.522 -0.998,1.939 -2.091,4.356 -3.336,7.094 -1.232,2.747 -2.525,5.875 -3.849,9.292 -0.614,1.731 -1.338,3.489 -1.939,5.366 -0.318,0.927 -0.64,1.872 -0.969,2.831 -0.298,0.967 -0.601,1.948 -0.907,2.943 -0.641,1.977 -1.161,4.048 -1.764,6.132 -0.459,2.129 -1.122,4.24 -1.527,6.456 -1.018,4.38 -1.668,8.967 -2.317,13.607 -0.467,4.662 -0.93,9.398 -0.915,14.151 l -0.058,3.561 c 0.041,1.186 0.081,2.371 0.122,3.554 0.035,2.368 0.26,4.718 0.427,7.056 l 0.136,1.749 0.23,1.732 c 0.136,1.156 0.272,2.307 0.406,3.45 0.105,1.15 0.331,2.274 0.526,3.396 0.206,1.119 0.374,2.24 0.556,3.35 0.855,4.411 1.768,8.687 2.89,12.696 0.264,1.008 0.493,2.013 0.776,2.987 0.302,0.969 0.601,1.923 0.894,2.861 0.594,1.876 1.066,3.739 1.709,5.458 1.245,3.453 2.251,6.712 3.421,9.492 1.107,2.808 1.977,5.335 2.879,7.325 0.862,2.012 1.481,3.641 1.932,4.739 0.429,1.114 0.658,1.708 0.658,1.708 0,0 -0.423,-0.471 -1.216,-1.354 -0.77,-0.9 -1.943,-2.199 -3.361,-3.914 -1.486,-1.677 -3.009,-3.893 -4.82,-6.426 -1.868,-2.502 -3.603,-5.547 -5.582,-8.857 -0.516,-0.817 -0.953,-1.695 -1.401,-2.59 -0.452,-0.896 -0.913,-1.808 -1.382,-2.736 -0.46,-0.934 -0.929,-1.886 -1.40498,-2.851 -0.45,-0.978 -0.85,-1.995 -1.287,-3.015 -1.765,-4.076 -3.3,-8.526 -4.64,-13.215 -1.283,-4.703 -2.369,-9.655 -3.007004,-14.763 -0.278,-2.556 -0.679,-5.128 -0.727,-7.74 -0.061,-1.303 -0.1230001,-2.607 -0.18500014,-3.914 -0.014,-1.307 0.004,-2.617 0.01500004,-3.927 0.057,-5.239 0.5950001,-10.462 1.3830041,-15.546 0.489,-2.526 0.873,-5.051 1.537,-7.483 0.303,-1.221 0.604,-2.434 0.903,-3.638 0.363,-1.186 0.723,-2.363 1.08,-3.531 0.181,-0.582 0.36,-1.162 0.539,-1.739 0.202,-0.569 0.402,-1.137 0.602,-1.7 0.396,-1.13 0.808,-2.241 1.217,-3.336 0.45,-1.08 0.895,-2.15 1.334,-3.205 0.22,-0.527 0.439,-1.05 0.656,-1.57 0.242,-0.509 0.483,-1.015 0.721,-1.518 1.83898,-4.048 3.93398,-7.695 5.92398,-10.992 2.057,-3.268 4.075,-6.161 6.001,-8.618 1.919,-2.462 3.725,-4.494 5.258,-6.116 1.502,-1.645 2.825,-2.813 3.696,-3.623 C 31.7571,0.382 32.2671,0 32.2671,0"
         transform="translate(117.355)"
         id="path35"
         inkscape:connector-curvature="0" />
      <path
         style="fill:#858788;fill-rule:nonzero;stroke:none"
         d="m 0,0 c 0,0 0.324,0.172 0.881,0.556 0.547,0.392 1.385,0.953 2.34,1.776 1.944,1.619 4.513,4.183 7.083,7.71 1.254,1.775 2.565,3.761 3.724,5.992 0.633,1.094 1.116,2.29 1.7,3.486 0.515,1.22 1.044,2.473 1.48,3.786 0.224,0.654 0.467,1.311 0.678,1.982 0.187,0.68 0.375,1.363 0.565,2.052 0.413,1.371 0.667,2.801 0.959,4.233 0.491,2.883 0.85,5.854 0.866,8.837 l 0.01,2.236 -0.12,2.226 c -0.043,1.485 -0.294,2.946 -0.474,4.398 -0.4,2.899 -1.096,5.697 -1.909,8.337 -0.844,2.633 -1.825,5.111 -2.939,7.361 -0.532,1.136 -1.098,2.211 -1.706,3.22 -0.617,1.003 -1.131,2.005 -1.768,2.89 -1.25,1.781 -2.366,3.403 -3.548,4.711 -1.152,1.326 -2.134,2.471 -3.08,3.318 -0.904,0.875 -1.671,1.511 -2.165,1.96 -0.506,0.442 -0.793,0.663 -0.793,0.663 0,0 0.07,-0.364 0.234,-1.017 0.175,-0.646 0.39,-1.614 0.736,-2.784 0.363,-1.161 0.692,-2.616 1.14,-4.218 0.483,-1.586 0.87,-3.422 1.388,-5.347 0.267,-0.959 0.453,-1.985 0.693,-3.021 0.109,-0.523 0.248,-1.041 0.375,-1.57 0.117,-0.534 0.204,-1.083 0.31,-1.631 0.469,-2.183 0.83,-4.488 1.188,-6.843 0.106,-1.192 0.35,-2.373 0.443,-3.588 0.051,-0.605 0.103,-1.215 0.156,-1.827 0.078,-0.608 0.136,-1.22 0.156,-1.837 0.064,-1.232 0.155,-2.469 0.158,-3.713 l 0.05,-1.866 -0.032,-1.87 C 8.771,38.105 8.582,35.616 8.384,33.155 8.086,30.709 7.827,28.276 7.385,25.934 7.226,24.748 6.911,23.618 6.736,22.467 6.48,21.34 6.252,20.223 5.983,19.143 5.492,16.965 4.902,14.922 4.369,13.002 3.25,9.188 2.163,5.944 1.341,3.653 0.926,2.511 0.616,1.579 0.368,0.965 0.128,0.336 0,0 0,0"
         transform="translate(371.714,26.435)"
         id="path37"
         inkscape:connector-curvature="0" />
      <path
         style="fill:#858788;fill-rule:nonzero;stroke:none"
         d="m 0,0 c 0,0 0.398,0.257 1.088,0.807 0.679,0.56 1.707,1.368 2.889,2.517 2.401,2.267 5.579,5.795 8.761,10.539 1.55,2.388 3.177,5.042 4.609,8.004 0.387,0.729 0.741,1.485 1.071,2.263 0.341,0.775 0.687,1.559 1.036,2.352 0.63,1.614 1.299,3.263 1.834,4.989 0.277,0.861 0.575,1.726 0.84,2.607 0.232,0.89 0.465,1.787 0.7,2.689 0.514,1.799 0.821,3.669 1.192,5.542 0.618,3.769 1.022,7.647 1.073,11.537 0.008,0.972 0.018,1.945 0.005,2.916 l -0.143,2.906 c -0.037,1.938 -0.354,3.846 -0.572,5.743 -0.495,3.787 -1.348,7.452 -2.351,10.923 -1.043,3.46 -2.247,6.731 -3.623,9.716 -0.342,0.748 -0.657,1.491 -1.008,2.206 -0.37,0.706 -0.722,1.405 -1.095,2.079 -0.367,0.675 -0.728,1.339 -1.082,1.99 -0.351,0.651 -0.691,1.29 -1.095,1.881 -1.543,2.396 -2.908,4.59 -4.366,6.38 -1.417,1.811 -2.617,3.387 -3.78,4.568 -1.11,1.214 -2.041,2.116 -2.647,2.747 -0.617,0.623 -0.962,0.94 -0.962,0.94 0,0 0.14,-0.45 0.404,-1.294 0.286,-0.828 0.663,-2.063 1.218,-3.572 0.579,-1.494 1.126,-3.381 1.839,-5.468 0.76,-2.066 1.396,-4.475 2.206,-7.014 C 8.46,90.227 8.76,88.865 9.143,87.49 9.32,86.798 9.529,86.106 9.727,85.4 c 0.184,-0.71 0.328,-1.442 0.497,-2.177 0.733,-2.917 1.315,-6.015 1.873,-9.198 0.117,-0.801 0.218,-1.609 0.357,-2.415 0.13,-0.808 0.28,-1.617 0.343,-2.443 0.085,-0.823 0.171,-1.65 0.256,-2.481 l 0.156,-1.243 0.086,-1.256 c 0.106,-1.677 0.248,-3.362 0.271,-5.057 l 0.081,-2.546 -0.049,-2.55 C 13.619,50.63 13.292,47.238 12.994,43.891 12.554,40.561 12.138,37.262 11.464,34.1 11.207,32.5 10.752,30.974 10.462,29.43 10.067,27.918 9.721,26.417 9.302,24.976 8.537,22.067 7.631,19.356 6.802,16.823 5.934,14.308 5.088,11.994 4.283,9.949 3.476,7.906 2.738,6.115 2.097,4.645 1.456,3.177 0.955,1.999 0.574,1.216 0.199,0.424 0,0 0,0"
         transform="translate(404.711,16.993)"
         id="path39"
         inkscape:connector-curvature="0" />
      <path
         style="fill:#858788;fill-rule:nonzero;stroke:none"
         d="m 0,0 c 0,0 0.51,0.382 1.395,1.182 0.872,0.81 2.194,1.978 3.696,3.623 1.534,1.622 3.34,3.655 5.258,6.116 1.926,2.457 3.945,5.35 6.002,8.618 1.99,3.297 4.085,6.944 5.923,10.992 0.239,0.503 0.48,1.009 0.722,1.518 0.218,0.52 0.436,1.043 0.656,1.57 0.439,1.055 0.884,2.125 1.334,3.205 0.409,1.095 0.821,2.206 1.217,3.336 0.2,0.563 0.4,1.131 0.602,1.7 0.179,0.577 0.359,1.157 0.539,1.739 0.357,1.168 0.717,2.345 1.08,3.531 0.299,1.205 0.6,2.417 0.903,3.638 0.665,2.432 1.049,4.957 1.537,7.484 0.788,5.084 1.326,10.306 1.384,15.545 0.01,1.31 0.028,2.62 0.014,3.927 -0.061,1.307 -0.123,2.612 -0.185,3.914 -0.048,2.612 -0.448,5.184 -0.727,7.741 -0.638,5.108 -1.723,10.059 -3.008,14.762 -1.339,4.689 -2.874,9.139 -4.639,13.215 -0.438,1.021 -0.838,2.037 -1.287,3.016 -0.476,0.964 -0.945,1.916 -1.406,2.85 -0.468,0.928 -0.929,1.84 -1.381,2.736 -0.448,0.896 -0.885,1.773 -1.402,2.59 -1.978,3.31 -3.713,6.355 -5.582,8.858 -1.81,2.532 -3.334,4.748 -4.819,6.425 -1.418,1.715 -2.591,3.014 -3.362,3.914 -0.792,0.883 -1.215,1.354 -1.215,1.354 0,0 0.228,-0.594 0.657,-1.708 0.451,-1.097 1.07,-2.727 1.933,-4.739 0.901,-1.99 1.771,-4.517 2.878,-7.325 1.17,-2.78 2.177,-6.039 3.422,-9.491 0.642,-1.719 1.115,-3.583 1.709,-5.459 0.293,-0.938 0.591,-1.892 0.895,-2.861 0.282,-0.973 0.512,-1.979 0.775,-2.986 1.122,-4.01 2.035,-8.286 2.89,-12.697 0.182,-1.11 0.35,-2.23 0.556,-3.35 0.196,-1.122 0.42,-2.246 0.526,-3.396 0.135,-1.143 0.269,-2.293 0.406,-3.45 l 0.23,-1.731 0.135,-1.75 c 0.167,-2.338 0.393,-4.688 0.428,-7.056 0.041,-1.182 0.081,-2.368 0.122,-3.554 l -0.058,-3.561 c 0.015,-4.753 -0.448,-9.489 -0.914,-14.151 -0.65,-4.64 -1.3,-9.227 -2.318,-13.607 C 17.116,44.011 16.453,41.9 15.994,39.771 15.391,37.687 14.871,35.616 14.23,33.639 13.923,32.644 13.621,31.663 13.323,30.696 12.995,29.737 12.672,28.793 12.354,27.865 11.753,25.988 11.029,24.23 10.416,22.499 9.09,19.082 7.798,15.954 6.566,13.207 5.321,10.469 4.228,8.052 3.23,6.113 2.233,4.172 1.462,2.619 0.88,1.591 0.306,0.553 0,0 0,0"
         transform="translate(436.667,0.123)"
         id="path41"
         inkscape:connector-curvature="0" />
    </g>
  </g>
</svg>
